<svg xmlns="http://www.w3.org/2000/svg" xmlns:xlink="http://www.w3.org/1999/xlink" width="500" zoomAndPan="magnify" viewBox="0 0 375 187.499995" height="250" preserveAspectRatio="xMidYMid meet" version="1.0"><defs><g/><clipPath id="79845c92e4"><rect x="0" width="130" y="0" height="54"/></clipPath><clipPath id="736ff3f725"><rect x="0" width="60" y="0" height="54"/></clipPath></defs><g transform="matrix(1, 0, 0, 1, 87, 66)"><g clip-path="url(#79845c92e4)"><g fill="#fcc509" fill-opacity="1"><g transform="translate(1.0695, 40.03913)"><g><path d="M 10.5625 0.484375 C 8.78125 0.484375 7.222656 0.191406 5.890625 -0.390625 C 4.554688 -0.984375 3.503906 -1.796875 2.734375 -2.828125 C 1.960938 -3.859375 1.53125 -5.015625 1.4375 -6.296875 L 7.40625 -6.296875 C 7.476562 -5.691406 7.785156 -5.1875 8.328125 -4.78125 C 8.867188 -4.382812 9.601562 -4.1875 10.53125 -4.1875 C 11.332031 -4.1875 11.953125 -4.316406 12.390625 -4.578125 C 12.835938 -4.847656 13.0625 -5.25 13.0625 -5.78125 C 13.0625 -6.300781 12.765625 -6.691406 12.171875 -6.953125 C 11.578125 -7.222656 10.65625 -7.484375 9.40625 -7.734375 C 7.894531 -8.066406 6.640625 -8.425781 5.640625 -8.8125 C 4.648438 -9.207031 3.789062 -9.835938 3.0625 -10.703125 C 2.332031 -11.566406 1.96875 -12.753906 1.96875 -14.265625 C 1.96875 -15.378906 2.316406 -16.375 3.015625 -17.25 C 3.722656 -18.132812 4.707031 -18.832031 5.96875 -19.34375 C 7.226562 -19.863281 8.648438 -20.125 10.234375 -20.125 C 11.691406 -20.125 13.039062 -19.84375 14.28125 -19.28125 C 15.53125 -18.726562 16.546875 -17.945312 17.328125 -16.9375 C 18.109375 -15.9375 18.535156 -14.804688 18.609375 -13.546875 L 12.71875 -13.546875 C 12.664062 -14.128906 12.40625 -14.597656 11.9375 -14.953125 C 11.476562 -15.304688 10.867188 -15.484375 10.109375 -15.484375 C 9.429688 -15.484375 8.910156 -15.367188 8.546875 -15.140625 C 8.179688 -14.910156 8 -14.582031 8 -14.15625 C 8 -13.65625 8.28125 -13.285156 8.84375 -13.046875 C 9.414062 -12.804688 10.34375 -12.535156 11.625 -12.234375 C 13.132812 -11.898438 14.382812 -11.546875 15.375 -11.171875 C 16.375 -10.796875 17.238281 -10.1875 17.96875 -9.34375 C 18.695312 -8.5 19.0625 -7.347656 19.0625 -5.890625 C 19.0625 -3.898438 18.289062 -2.335938 16.75 -1.203125 C 15.21875 -0.078125 13.15625 0.484375 10.5625 0.484375 Z M 10.5625 0.484375 "/></g></g></g><g fill="#fcc509" fill-opacity="1"><g transform="translate(20.276395, 40.03913)"><g><path d="M 14.640625 -14.078125 L 10.15625 -14.078125 L 10.15625 -8.5625 C 10.15625 -7.632812 10.410156 -6.90625 10.921875 -6.375 C 11.441406 -5.851562 12.164062 -5.59375 13.09375 -5.59375 L 14.640625 -5.59375 L 14.640625 0 L 11.171875 0 C 8.828125 0 7.019531 -0.648438 5.75 -1.953125 C 4.476562 -3.265625 3.84375 -5.082031 3.84375 -7.40625 L 3.84375 -14.078125 L 0.640625 -14.078125 L 0.640625 -19.625 L 3.84375 -19.625 L 3.84375 -24.84375 L 10.15625 -24.84375 L 10.15625 -19.625 L 14.640625 -19.625 Z M 14.640625 -14.078125 "/></g></g></g><g fill="#fcc509" fill-opacity="1"><g transform="translate(35.030538, 40.03913)"><g><path d="M 15.8125 -19.859375 L 15.8125 -14.265625 L 13.28125 -14.265625 C 12 -14.265625 10.910156 -13.832031 10.015625 -12.96875 C 9.128906 -12.101562 8.6875 -10.988281 8.6875 -9.625 L 8.6875 0 L 2.375 0 L 2.375 -19.625 L 8.234375 -19.625 L 8.234375 -17.359375 C 9.742188 -19.023438 11.753906 -19.859375 14.265625 -19.859375 Z M 15.8125 -19.859375 "/></g></g></g><g fill="#fcc509" fill-opacity="1"><g transform="translate(49.746943, 40.03913)"><g><path d="M 11.625 -20.125 C 13.488281 -20.125 15.21875 -19.691406 16.8125 -18.828125 C 18.414062 -17.972656 19.703125 -16.769531 20.671875 -15.21875 C 21.640625 -13.675781 22.125 -11.925781 22.125 -9.96875 C 22.125 -9.382812 22.0625 -8.71875 21.9375 -7.96875 L 7.359375 -7.96875 C 7.609375 -6.78125 8.109375 -5.859375 8.859375 -5.203125 C 9.617188 -4.554688 10.566406 -4.234375 11.703125 -4.234375 C 12.609375 -4.234375 13.367188 -4.394531 13.984375 -4.71875 C 14.597656 -5.039062 15.117188 -5.53125 15.546875 -6.1875 L 21.5625 -6.1875 C 20.820312 -4.195312 19.597656 -2.585938 17.890625 -1.359375 C 16.179688 -0.128906 14.09375 0.484375 11.625 0.484375 C 9.738281 0.484375 7.988281 0.0546875 6.375 -0.796875 C 4.769531 -1.648438 3.484375 -2.851562 2.515625 -4.40625 C 1.546875 -5.96875 1.0625 -7.769531 1.0625 -9.8125 C 1.0625 -11.851562 1.546875 -13.648438 2.515625 -15.203125 C 3.484375 -16.765625 4.769531 -17.972656 6.375 -18.828125 C 7.988281 -19.691406 9.738281 -20.125 11.625 -20.125 Z M 11.625 -15.359375 C 10.570312 -15.359375 9.671875 -15.0625 8.921875 -14.46875 C 8.179688 -13.882812 7.675781 -13.023438 7.40625 -11.890625 L 15.9375 -11.890625 C 15.726562 -12.921875 15.257812 -13.753906 14.53125 -14.390625 C 13.800781 -15.035156 12.832031 -15.359375 11.625 -15.359375 Z M 11.625 -15.359375 "/></g></g></g><g fill="#fcc509" fill-opacity="1"><g transform="translate(71.444357, 40.03913)"><g><path d="M 16.953125 -19.625 L 22.765625 -19.625 L 22.765625 0 L 16.953125 0 L 16.953125 -1.921875 C 15.492188 -0.316406 13.441406 0.484375 10.796875 0.484375 C 9.179688 0.484375 7.628906 0.0664062 6.140625 -0.765625 C 4.660156 -1.609375 3.453125 -2.816406 2.515625 -4.390625 C 1.585938 -5.960938 1.125 -7.769531 1.125 -9.8125 C 1.125 -11.851562 1.585938 -13.660156 2.515625 -15.234375 C 3.453125 -16.804688 4.660156 -18.015625 6.140625 -18.859375 C 7.628906 -19.703125 9.179688 -20.125 10.796875 -20.125 C 13.410156 -20.125 15.460938 -19.316406 16.953125 -17.703125 Z M 12.078125 -5.09375 C 13.441406 -5.09375 14.566406 -5.539062 15.453125 -6.4375 C 16.347656 -7.332031 16.796875 -8.457031 16.796875 -9.8125 C 16.796875 -11.175781 16.347656 -12.300781 15.453125 -13.1875 C 14.566406 -14.082031 13.441406 -14.53125 12.078125 -14.53125 C 10.722656 -14.53125 9.597656 -14.082031 8.703125 -13.1875 C 7.804688 -12.300781 7.359375 -11.175781 7.359375 -9.8125 C 7.359375 -8.457031 7.804688 -7.332031 8.703125 -6.4375 C 9.597656 -5.539062 10.722656 -5.09375 12.078125 -5.09375 Z M 12.078125 -5.09375 "/></g></g></g><g fill="#fcc509" fill-opacity="1"><g transform="translate(95.141734, 40.03913)"><g><path d="M 25.859375 -20.125 C 27.316406 -20.125 28.59375 -19.78125 29.6875 -19.09375 C 30.78125 -18.414062 31.628906 -17.457031 32.234375 -16.21875 C 32.835938 -14.988281 33.140625 -13.570312 33.140625 -11.96875 L 33.140625 0 L 26.84375 0 L 26.84375 -10.875 C 26.84375 -12.007812 26.582031 -12.894531 26.0625 -13.53125 C 25.550781 -14.175781 24.851562 -14.5 23.96875 -14.5 C 23.113281 -14.5 22.390625 -14.171875 21.796875 -13.515625 C 21.203125 -12.859375 20.90625 -11.976562 20.90625 -10.875 L 20.90625 0 L 14.609375 0 L 14.609375 -10.875 C 14.609375 -12.007812 14.347656 -12.894531 13.828125 -13.53125 C 13.316406 -14.175781 12.617188 -14.5 11.734375 -14.5 C 10.878906 -14.5 10.15625 -14.171875 9.5625 -13.515625 C 8.976562 -12.859375 8.6875 -11.976562 8.6875 -10.875 L 8.6875 0 L 2.375 0 L 2.375 -19.625 L 8.109375 -19.625 L 8.109375 -17.625 C 9.597656 -19.289062 11.4375 -20.125 13.625 -20.125 C 14.832031 -20.125 15.957031 -19.832031 17 -19.25 C 18.050781 -18.675781 18.863281 -17.894531 19.4375 -16.90625 C 21.175781 -19.050781 23.316406 -20.125 25.859375 -20.125 Z M 25.859375 -20.125 "/></g></g></g></g></g><g transform="matrix(1, 0, 0, 1, 217, 65)"><g clip-path="url(#736ff3f725)"><g fill="#000000" fill-opacity="1"><g transform="translate(0.748113, 39.960797)"><g><path d="M 15.4375 -23.109375 C 14.5625 -23.109375 13.851562 -22.898438 13.3125 -22.484375 C 12.769531 -22.066406 12.421875 -21.457031 12.265625 -20.65625 L 12.078125 -19.625 L 16.609375 -19.625 L 15.515625 -14.078125 L 11.015625 -14.078125 L 8.3125 0 L 1.96875 0 L 4.6875 -14.078125 L 1.46875 -14.078125 L 2.5625 -19.625 L 5.734375 -19.625 L 6.109375 -21.59375 C 6.535156 -23.8125 7.441406 -25.484375 8.828125 -26.609375 C 10.210938 -27.742188 12.050781 -28.3125 14.34375 -28.3125 L 18.265625 -28.3125 L 17.25 -23.109375 Z M 15.4375 -23.109375 "/></g></g></g><g fill="#000000" fill-opacity="1"><g transform="translate(14.709818, 39.960797)"><g><path d="M 7.015625 0 L 0.71875 0 L 5.921875 -27.1875 L 12.234375 -27.1875 Z M 7.015625 0 "/></g></g></g><g fill="#000000" fill-opacity="1"><g transform="translate(24.747065, 39.960797)"><g><path d="M 6.796875 0 L 0.484375 0 L 4.296875 -19.625 L 10.5625 -19.625 Z M 11.25 -22.65625 L 4.71875 -22.65625 L 5.703125 -27.703125 L 12.234375 -27.703125 Z M 11.25 -22.65625 "/></g></g></g><g fill="#000000" fill-opacity="1"><g transform="translate(34.369224, 39.960797)"><g><path d="M 16.609375 -19.625 L 23.9375 -19.625 L 15.671875 -10.1875 L 20.609375 0 L 14.1875 0 L 11.40625 -6.5 L 6.046875 0 L -1.328125 0 L 7.546875 -10.078125 L 2.984375 -19.625 L 9.21875 -19.625 L 11.734375 -13.546875 Z M 16.609375 -19.625 "/></g></g></g></g></g></svg>